# xmcd CD database file
#
# Track frame offsets:
#	150
#	19814
#	38209
#	54917
#	73164
#	93631
#	121969
#	144118
#	162397
#	176557
#	201667
#	221036
#	242064
#	261589
#	279175
#	299286
#	322767
#
# Disc length: 4596 seconds
#
# Revision: 1
# Processed by: cddbd v1.5.2PL0 Copyright (c) Steve Scherf et al.
# Submitted via: CDex 1.51
#
DISCID=0411f211
DTITLE=AaRON - Waves From The Road - Live From The Unplugged And Waves Tour
DYEAR=2011
DGENRE=Pop
TTITLE0=Inner Streets (Live)
TTITLE1=Rise (Live)
TTITLE2=Angel Dust (Live)
TTITLE3=Blow (Live)
TTITLE4=Seeds Of Gold (Live)
TTITLE5=War Flag (Live)
TTITLE6=Birds In The Storm (Live)
TTITLE7=A Thousand Wars (Live)
TTITLE8=Mr K (Live)
TTITLE9=The Lame Souls (Live)
TTITLE10=Little Love (Live)
TTITLE11=Arm Your Eyes (Live)
TTITLE12=Ludlow L. (Live)
TTITLE13=Tomorrow Morning (Live)
TTITLE14=U-Turn (Live)
TTITLE15=Passengers (Live)
TTITLE16=Endless Song (Live)
EXTD=YEAR: 2011
EXTT0=
EXTT1=
EXTT2=
EXTT3=
EXTT4=
EXTT5=
EXTT6=
EXTT7=
EXTT8=
EXTT9=
EXTT10=
EXTT11=
EXTT12=
EXTT13=
EXTT14=
EXTT15=
EXTT16=
PLAYORDER=
